<svg width="188" height="26" xmlns="http://www.w3.org/2000/svg" t="1644563990823" class="icon" version="1.1" p-id="3850">
 <g>
  <title>background</title>
  <rect fill="none" id="canvas_background" height="28" width="190" y="-1" x="-1"/>
 </g>

 <g>
  <title>Layer 1</title>
  <g stroke="null" id="svg_22">
   <g stroke="null" id="svg_z">
    <path stroke="null" d="m23.501339,23.272047l-20.175913,0l0,-20.242651l20.175913,0l0,20.242651z" fill="#FFFFFF" fill-opacity="0.75" p-id="3851" id="svg_1"/>
    <path stroke="null" d="m3.65084,3.355883l0,19.589678l19.525083,0l0,-19.589678l-19.525083,0m-0.65084,-0.652983l20.826754,0l0,20.895643l-20.826754,0l0,-20.895643z" fill="#834ec2" p-id="3852" id="svg_2"/>
    <path stroke="null" d="m17.857783,9.443937c0,-0.531766 -0.280596,-0.922769 -0.810637,-1.173026c-0.545612,-0.218957 -1.387401,-0.34411 -2.540859,-0.34411c-0.124707,0 -0.311778,0.01567 -0.561213,0.03135s-0.530011,0.03135 -0.841789,0.047021c-0.327369,0.03135 -0.654738,0.047021 -0.997678,0.078202l-0.950925,0.093853c-0.311778,0.047011 -0.576803,0.093843 -0.795046,0.125104c-0.233824,0.03135 -0.389713,0.062691 -0.483258,0.093853c-0.17148,0.062681 -0.280586,0.125104 -0.34296,0.218957s-0.093545,0.203316 -0.093545,0.359721c0,0.187696 0.077945,0.344091 0.233834,0.437914c0.155889,0.109493 0.34297,0.156415 0.561203,0.156415a1.164398,1.168256 0 0 0 0.311778,-0.047021l0.280596,-0.062691l0.311778,-0.093843c0.077945,-0.01567 0.17148,-0.03135 0.280586,-0.062691c0.467667,-0.093843 0.904173,-0.172055 1.325107,-0.234597a10.930941,10.967111 0 0 1 1.246994,-0.078212c0.717092,0 1.262614,0.078212 1.636835,0.218967q0.561203,0.234597 0.561203,0.516116c0,0.156405 -0.124707,0.344091 -0.358541,0.563067c-0.249425,0.218957 -0.51442,0.453564 -0.810627,0.672551c-0.34296,0.250258 -0.717092,0.531766 -1.138006,0.828955c-0.436476,0.3128 -0.888572,0.625609 -1.340718,0.954069c-0.467618,0.34418 -0.904014,0.70403 -1.324998,1.063771a9.554846,9.586445 0 0 0 -1.137996,1.094824c-0.327369,0.375362 -0.592365,0.750733 -0.779445,1.126115c-0.218243,0.391012 -0.311778,0.766374 -0.311778,1.126085c0,0.281519 0.077945,0.484865 0.249425,0.64127a1.639047,1.644462 0 0 0 0.623556,0.359721a2.886695,2.896246 0 0 0 0.763855,0.187646a5.770257,5.789348 0 0 0 0.701491,0.03135c0.483268,0 0.966526,0 1.449784,-0.03135c0.467667,-0.01567 0.966516,-0.047021 1.465345,-0.078202c0.280596,-0.01567 0.576803,-0.03135 0.85739,-0.047021l0.872981,-0.03135c0.077945,0 0.17148,-0.01567 0.265025,-0.01567l0.265015,0c0.093535,0 0.202642,-0.01566 0.296187,-0.01566l0.280586,-0.047021c0.17148,-0.047021 0.296187,-0.109493 0.389723,-0.203316c0.062473,-0.062691 0.109136,-0.187696 0.109136,-0.375362c0,-0.062691 -0.046862,-0.140754 -0.109136,-0.234607c-0.062473,-0.078202 -0.155889,-0.156405 -0.249425,-0.234597c-0.093545,-0.062691 -0.202652,-0.125114 -0.311778,-0.187696c-0.109136,-0.03135 -0.202642,-0.062691 -0.280596,-0.062691a1.159349,1.163188 0 0 0 -0.436476,0.093843a1.814534,1.820534 0 0 0 -0.233834,0.093853a1.37179,1.376323 0 0 1 -0.233834,0.078202a14.004221,14.050547 0 0 1 -1.979795,0.234607c-0.34296,0.031331 -0.670329,0.031331 -0.997678,0.031331l-0.966516,0a1.851686,1.857806 0 0 1 -0.389723,-0.031331a1.138988,1.142757 0 0 1 -0.467667,-0.093853q-0.233834,-0.047021 -0.374132,-0.187696c-0.124697,-0.078202 -0.17148,-0.187696 -0.17148,-0.32845s0.077945,-0.32845 0.233834,-0.547417s0.374122,-0.453197 0.654718,-0.718966c0.249425,-0.250258 0.561203,-0.516126 0.904163,-0.813315c0.34294,-0.281519 0.701451,-0.578678 1.075633,-0.860217s0.748274,-0.578638 1.122405,-0.860226s0.717092,-0.531766 1.060062,-0.782024q0.491034,-0.375362 0.888572,-0.65691l0.607965,-0.437914a2.954563,2.964332 0 0 0 0.670329,-0.719462c0.17146,-0.265898 0.264996,-0.547417 0.264996,-0.860226l0.00001,0l-0.00001,0.00001z" fill="#834ec2" p-id="3853" id="svg_3"/>
   </g>
   <g stroke="null" id="svg_e">
    <path stroke="null" d="m50.159582,23.272047l-20.175923,0l0,-20.242651l20.175923,0l0,20.242651z" fill="#FFFFFF" fill-opacity="0.75" p-id="6334" id="svg_4"/>
    <path stroke="null" d="m30.309084,3.355883l0,19.589678l19.525083,0l0,-19.589678l-19.525083,0m-0.65084,-0.652983l20.826754,0l0,20.895643l-20.826754,0l0,-20.895643z" fill="#834ec2" p-id="6335" id="svg_5"/>
    <path stroke="null" d="m43.883196,8.431591a0.49633,0.497966 0 0 0 -0.152477,-0.351827c-0.106726,-0.09178 -0.228696,-0.152983 -0.381154,-0.152983c-0.091482,0 -0.213472,0.015303 -0.36592,0.015303c-0.152477,0.015303 -0.304925,0.030587 -0.48789,0.04589l-0.533681,0.030587l-0.503143,0.030587l-2.6833,0.122396c-0.396417,0.030587 -0.762337,0.04589 -1.09775,0.076477c-0.350666,0.030587 -0.60986,0.09178 -0.762337,0.168257q-0.137224,0.06883 -0.182965,0.18357a0.56279,0.564654 0 0 0 -0.030488,0.198853c0,0.260037 0.182965,0.443606 0.564119,0.55068c0,0.336523 -0.015254,0.627176 -0.015254,0.887233l-0.060975,1.575612a8.161485,8.188471 0 0 0 -0.045741,0.887233c-0.12196,0.04589 -0.198199,0.061193 -0.228706,0.061193l-0.167701,0a0.774853,0.777422 0 0 0 -0.335412,0.168257c-0.12197,0.09178 -0.167711,0.198883 -0.167711,0.305946c0,0.168267 0.045741,0.290623 0.152477,0.382423c0.091482,0.107093 0.182965,0.152983 0.304925,0.152983l0.152477,0c0.045741,0 0.12196,-0.015313 0.24393,-0.030587c-0.030507,0.122367 -0.045741,0.290623 -0.060995,0.489477c-0.030488,0.214176 -0.060995,0.428353 -0.076229,0.642529l-0.061005,0.672997a3.89567,3.908563 0 0 0 -0.030478,0.565983c0,0.18357 0,0.351836 0.030478,0.520103a1.079213,1.082783 0 0 0 0.152477,0.489506c0.091492,0.244743 0.274447,0.45892 0.533681,0.611873a2.910984,2.920614 0 0 0 0.823312,0.382423a3.875864,3.888678 0 0 0 0.945272,0.214176c0.335412,0.030587 0.625123,0.04589 0.899531,0.04589c0.472646,0 0.930048,-0.015303 1.387431,-0.04589c0.426954,-0.030587 0.884307,-0.09178 1.356943,-0.152983l0.259194,-0.04589l0.274447,-0.09178c0.091492,-0.030587 0.152448,-0.09178 0.213472,-0.152983a0.31029,0.311312 0 0 0 0.091492,-0.22946a0.373844,0.375074 0 0 0 -0.091492,-0.244733a1.026133,1.029534 0 0 0 -0.228706,-0.214186a2.649371,2.658138 0 0 0 -0.289661,-0.152983a1.232474,1.23656 0 0 0 -0.304925,-0.04589a3.975301,3.988462 0 0 0 -0.732018,0.076566c-0.12196,0.030577 -0.213472,0.04589 -0.304925,0.061193q-0.160074,0.02293 -0.274447,0.04589c-0.24394,0.04589 -0.48789,0.076477 -0.762337,0.107093a7.114257,7.137792 0 0 1 -0.792825,0.04589a5.245244,5.262591 0 0 1 -0.701332,-0.04589c-0.228706,-0.015303 -0.442158,-0.061193 -0.625123,-0.152983c-0.198189,-0.061193 -0.350666,-0.18357 -0.472626,-0.336533c-0.12197,-0.13768 -0.167711,-0.336523 -0.167711,-0.581286a12.345785,12.386626 0 0 1 0.061005,-1.239059l0.12196,-1.346123c0.579372,-0.04589 1.21972,-0.09178 1.905798,-0.13768s1.311202,-0.107093 1.890574,-0.168257a0.815784,0.818472 0 0 0 0.426954,-0.168267c0.106726,-0.076477 0.167701,-0.198853 0.167701,-0.36714a0.553625,0.55546 0 0 0 -0.167701,-0.397726a0.597135,0.599109 0 0 0 -0.396417,-0.13767c-0.152467,0 -0.320208,0.015303 -0.48788,0.030577l-0.548865,0.061193l-0.579303,0.04587l-0.686079,0.061193l-0.747083,0.061302l-0.701332,0.061074c0.030488,-0.581296 0.045741,-1.131976 0.060995,-1.652059l0.045741,-1.606169q0.640427,-0.04589 1.143501,-0.09178c0.304925,-0.015303 0.655601,-0.030587 1.051998,-0.061193c0.426954,-0.030587 0.899531,-0.04589 1.402684,-0.04589a9.937924,9.970802 0 0 0 1.387431,-0.09178a0.495239,0.496875 0 0 0 0.335412,-0.18357c0.060975,-0.09178 0.106706,-0.22946 0.106706,-0.41302l0,-0.00001l-0.00002,-0.00002z" fill="#834ec2" p-id="6336" id="svg_6"/>
   </g>
   <g stroke="null" id="svg_r">
    <path stroke="null" d="m76.817815,23.272047l-20.175913,0l0,-20.242651l20.175913,0l0,20.242651z" fill="#FFFFFF" fill-opacity="0.75" p-id="6554" id="svg_7"/>
    <path stroke="null" d="m56.967327,3.355883l0,19.589678l19.525083,0l0,-19.589678l-19.525083,0m-0.65084,-0.652983l20.826754,0l0,20.895643l-20.826754,0l0,-20.895643z" fill="#834ec2" p-id="6555" id="svg_8"/>
    <path stroke="null" d="m70.961313,17.6781c0,-0.148203 -0.044254,-0.251924 -0.103404,-0.296405a0.064694,0.064912 0 0 1 -0.044254,-0.014817l-0.059101,-0.029645a0.209932,0.210626 0 0 1 -0.088517,-0.029635c-0.029545,0 -0.073858,0 -0.103404,-0.029645c-0.265878,-0.074106 -0.57607,-0.266761 -0.945322,-0.563147a4.678646,4.694128 0 0 1 -0.576199,-0.503848l-0.561282,-0.533492c-0.221565,-0.192665 -0.443121,-0.385319 -0.649928,-0.563137s-0.428373,-0.370512 -0.649898,-0.563166l-0.354494,-0.26687l-0.531757,-0.355566a12.621928,12.663672 0 0 0 1.59525,-0.533522a6.609289,6.631157 0 0 0 1.285058,-0.711339c0.354494,-0.266761 0.649928,-0.563137 0.871473,-0.889197c0.206659,-0.32607 0.310191,-0.71131 0.310191,-1.141001c0,-0.444578 -0.132929,-0.829888 -0.369262,-1.14111a2.843404,2.852796 0 0 0 -0.915776,-0.740994c-0.369262,-0.177847 -0.782857,-0.296405 -1.225968,-0.385309a8.350857,8.378478 0 0 0 -1.314683,-0.118568c-0.147717,0 -0.38405,0.014817 -0.723737,0.029645c-0.354494,0.029645 -0.738544,0.088805 -1.181655,0.16301q-0.044263,-0.266751 -0.221565,-0.400127c-0.118162,-0.088805 -0.236343,-0.133366 -0.369262,-0.133366c-0.236343,0 -0.428353,0.177847 -0.590956,0.518685a4.636039,4.651372 0 0 0 -0.472666,0.088805c-0.118162,0.044402 -0.221575,0.088805 -0.280646,0.148203s-0.103404,0.103741 -0.118162,0.148203a0.3212,0.322261 0 0 0 -0.029545,0.148203a0.421123,0.422511 0 0 0 0.177391,0.355675c0.103404,0.103741 0.251091,0.16301 0.457898,0.177847c-0.044254,0.32603 -0.073848,0.59292 -0.073848,0.800253l0,1.793181c0,0.444578 0,0.903994 0.029545,1.378227a0.354861,0.356032 0 0 1 -0.147707,0.029625a0.1606,0.161126 0 0 1 -0.073858,0.014807c-0.118162,0.044412 -0.221565,0.103751 -0.280636,0.192665a0.369123,0.370353 0 0 0 -0.118162,0.281598c0,0.148203 0.059091,0.251924 0.177252,0.340857s0.265888,0.148203 0.472676,0.16301q0.044254,1.333765 0.044254,2.489683c0,0.296405 0.059101,0.563137 0.19203,0.785446c0.132929,0.237107 0.369262,0.340857 0.694231,0.340857s0.502241,-0.133385 0.502241,-0.414954a0.819295,0.822013 0 0 0 -0.044254,-0.251934a1.143392,1.14717 0 0 1 -0.103404,-0.237107a1.378048,1.382621 0 0 1 -0.103433,-0.296326c-0.044254,-0.088805 -0.059101,-0.192655 -0.059101,-0.311213c0,-0.32602 -0.014758,-0.696522 -0.014758,-1.081812l-0.044254,-1.185572a2.63248,2.641178 0 0 0 0.38397,-0.059468c0.088507,-0.029645 0.206788,-0.044412 0.324949,-0.074106c0.162475,0.088805 0.354494,0.192665 0.590956,0.340857c0.221565,0.148203 0.472666,0.32603 0.738534,0.518685c0.251091,0.207462 0.516979,0.414954 0.782857,0.637312c0.265888,0.237107 0.516979,0.474233 0.76799,0.696532c0.324949,0.32602 0.620373,0.59292 0.871463,0.81508c0.236343,0.237116 0.472676,0.429781 0.679483,0.607598c0.221565,0.207472 0.413595,0.340857 0.590956,0.429771c0.162475,0.074106 0.280636,0.118568 0.339737,0.118568a0.467925,0.469472 0 0 0 0.339737,-0.133366a1.047119,1.05058 0 0 0 0.236333,-0.266761a0.612181,0.614194 0 0 0 0.088438,-0.296386l-0.00004,0.00002zm-1.84634,-7.143048c0,0.414964 -0.103404,0.770529 -0.310191,1.052207a2.497677,2.505938 0 0 1 -0.812293,0.711339c-0.324949,0.207462 -0.694241,0.355675 -1.078261,0.474233s-0.753302,0.222299 -1.107796,0.281568l-0.76799,0.133366c-0.265878,0.059289 -0.546524,0.103741 -0.841918,0.148203l0,-0.370472a1.433063,1.437804 0 0 1 -0.014758,-0.251934c0,-0.503867 0,-0.992908 0.014758,-1.467131c0,-0.474233 0.029545,-0.963263 0.073858,-1.467131a0.554101,0.555926 0 0 1 0.014748,-0.148203a1.059556,1.063067 0 0 1 0.014758,-0.192665c0.398807,-0.103751 0.782857,-0.177847 1.137352,-0.237116a8.664479,8.693142 0 0 1 1.093039,-0.074096c0.251091,0 0.531757,0.029645 0.82716,0.059289a3.303256,3.314185 0 0 1 0.856716,0.207462c0.251091,0.103751 0.472666,0.237116 0.649928,0.414964c0.162266,0.192625 0.250892,0.429741 0.250892,0.726117z" fill="#834ec2" p-id="6556" id="svg_9"/>
   </g>
   <g stroke="null" id="svg_i">
    <path stroke="null" d="m103.476068,23.272047l-20.175913,0l0,-20.242651l20.175913,0l0,20.242651z" fill="#FFFFFF" fill-opacity="0.75" p-id="4263" id="svg_10"/>
    <path stroke="null" d="m83.62557,3.355883l0,19.589678l19.525083,0l0,-19.589678l-19.525083,0m-0.65084,-0.652983l20.826754,0l0,20.895643l-20.826754,0l0,-20.895643z" fill="#834ec2" p-id="4264" id="svg_11"/>
    <path stroke="null" d="m95.263764,17.581719c0,-0.139921 -0.09296,-0.279843 -0.247937,-0.435325c-0.18596,-0.139931 -0.341046,-0.217658 -0.495894,-0.233229c-0.216943,0.062185 -0.402894,0.12438 -0.55787,0.155473c-0.061987,-1.072766 -0.09296,-2.565307 -0.09296,-4.493192c0,-0.995159 0.046495,-2.161074 0.154947,-3.467059a5.632706,5.651331 0 0 0 0.604336,-0.062185c0.341046,-0.031112 0.526867,-0.155463 0.526867,-0.388691c0,-0.139921 -0.077468,-0.295404 -0.216934,-0.481959c-0.154957,-0.155463 -0.27893,-0.24876 -0.387412,-0.24876c-0.061987,0 -0.216934,0.046654 -0.433897,0.12438c-0.232465,0.093278 -0.433907,0.155473 -0.588854,0.171034c-0.37192,0.046654 -0.867774,0.093278 -1.487631,0.12439c-0.309805,0.031083 -0.449389,0.12438 -0.449389,0.310816s0.077468,0.342167 0.232455,0.466418c0.139455,0.139931 0.294432,0.202116 0.449389,0.202116c0.061987,0 0.216934,-0.01567 0.449379,-0.046654c-0.061987,1.228239 -0.077468,2.472029 -0.077468,3.746902l0.077468,4.197788c-0.46487,0.031083 -0.728309,0.062185 -0.805787,0.062185c-0.27892,0.031261 -0.402894,0.171182 -0.402894,0.404401c0,0.155473 0.061987,0.310826 0.201452,0.450876q0.18595,0.233199 0.418405,0.233199c1.100199,-0.155473 1.983485,-0.233219 2.634325,-0.264311c0.325425,0 0.495894,-0.186565 0.495894,-0.528603l0.00001,-0.00001z" fill="#834ec2" p-id="4265" id="svg_12"/>
   </g>
   <g stroke="null" id="svg_t">
    <path stroke="null" d="m130.134311,23.272047l-20.175913,0l0,-20.242651l20.175913,0l0,20.242651z" fill="#FFFFFF" fill-opacity="0.75" p-id="5866" id="svg_13"/>
    <path stroke="null" d="m110.283803,3.355883l0,19.589678l19.525083,0l0,-19.589678l-19.525083,0m-0.65084,-0.652983l20.826764,0l0,20.895643l-20.826764,0l0,-20.895643z" fill="#834ec2" p-id="5867" id="svg_14"/>
    <path stroke="null" d="m124.08934,8.561356q0,-0.088537 -0.088249,-0.221367c-0.058833,-0.059031 -0.132374,-0.13281 -0.220623,-0.206599a2.379664,2.387539 0 0 0 -0.264738,-0.147578c-0.088249,-0.029516 -0.176508,-0.059031 -0.24993,-0.059031c-0.132374,0 -0.294174,0.044273 -0.470653,0.103305c-0.102967,0.029516 -0.191217,0.059031 -0.279436,0.088547a1.959355,1.965841 0 0 1 -0.279446,0.073789a17.435457,17.493129 0 0 1 -1.985597,0.236115l-2.000454,0.147608c-0.264738,0.029516 -0.529495,0.029516 -0.794233,0.029516c-0.279436,0 -0.558912,0.014748 -0.823649,0.029516a1.041892,1.045324 0 0 1 -0.205915,0.014758a0.738257,0.740696 0 0 0 -0.176508,0.029516a0.508598,0.510274 0 0 0 -0.176518,0.103305c-0.058833,0.044273 -0.088249,0.103305 -0.088249,0.191851a0.353245,0.354415 0 0 0 0.088249,0.221357a0.549748,0.551572 0 0 0 0.191217,0.221367a0.966288,0.969482 0 0 0 0.24993,0.177093a0.410878,0.412246 0 0 0 0.24993,0.073789a3.175295,3.185798 0 0 0 0.514777,-0.044263c0.088249,-0.014758 0.191217,-0.029525 0.279446,-0.044273s0.176508,-0.029516 0.279436,-0.044273c0.264738,-0.014758 0.529495,-0.044273 0.823649,-0.073789c0.279446,-0.014758 0.603036,-0.029516 0.956033,-0.059031q-0.132384,1.283848 -0.264738,2.833317t-0.132116,3.143122c0,0.619788 0.014708,1.151038 0.058833,1.593732c0.029416,0.442694 0.058843,0.767365 0.102967,0.944429c0.029416,0.147578 0.132384,0.250744 0.308862,0.339399a1.253877,1.258022 0 0 0 0.514787,0.118062a0.790712,0.793321 0 0 0 0.41182,-0.118062c0.117676,-0.073789 0.176508,-0.177093 0.176508,-0.324632a1.466694,1.471554 0 0 0 -0.029406,-0.236125l-0.058843,-0.236115c-0.029416,-0.073789 -0.044125,-0.147578 -0.073541,-0.236125a0.609731,0.611744 0 0 1 -0.044135,-0.236115c-0.029406,-0.26561 -0.058833,-0.678829 -0.073541,-1.254343c-0.029406,-0.560756 -0.029406,-1.224827 -0.029406,-1.962647c0,-0.678829 0.029406,-1.387133 0.088239,-2.154509c0.058843,-0.73785 0.132384,-1.519943 0.191217,-2.316805a26.486654,26.574269 0 0 1 1.485528,-0.13281a10.210447,10.244228 0 0 0 1.367843,-0.191851a1.349029,1.353492 0 0 0 0.338279,-0.13281c0.08815,-0.058972 0.132404,-0.162256 0.132404,-0.280319l-0.00003,-0.00002z" fill="#834ec2" p-id="5868" id="svg_15"/>
   </g>
   <g stroke="null" id="svg_e">
    <path stroke="null" d="m156.792555,23.272047l-20.175913,0l0,-20.242651l20.175913,0l0,20.242651z" fill="#FFFFFF" fill-opacity="0.75" p-id="6334" id="svg_16"/>
    <path stroke="null" d="m136.942056,3.355883l0,19.589678l19.525083,0l0,-19.589678l-19.525083,0m-0.65084,-0.652983l20.826754,0l0,20.895643l-20.826754,0l0,-20.895643z" fill="#834ec2" p-id="6335" id="svg_17"/>
    <path stroke="null" d="m150.516169,8.431591a0.49633,0.497966 0 0 0 -0.152467,-0.351827c-0.106736,-0.09178 -0.228706,-0.152983 -0.381154,-0.152983c-0.091492,0 -0.213482,0.015303 -0.36593,0.015303c-0.152477,0.015303 -0.304925,0.030587 -0.48789,0.04589l-0.533681,0.030587l-0.503143,0.030587l-2.6833,0.122396c-0.396407,0.030587 -0.762337,0.04589 -1.09775,0.076477c-0.350666,0.030587 -0.60986,0.09178 -0.762337,0.168257q-0.137214,0.06883 -0.182955,0.18357a0.56279,0.564654 0 0 0 -0.030488,0.198853c0,0.260037 0.182955,0.443606 0.564119,0.55068c0,0.336523 -0.015264,0.627176 -0.015264,0.887233l-0.060965,1.575612a8.161485,8.188471 0 0 0 -0.045751,0.887233c-0.12196,0.04589 -0.198189,0.061193 -0.228706,0.061193l-0.167701,0a0.774853,0.777422 0 0 0 -0.335412,0.168257c-0.12196,0.09178 -0.167711,0.198883 -0.167711,0.305946c0,0.168267 0.045751,0.290623 0.152477,0.382423c0.091492,0.107093 0.182965,0.152983 0.304925,0.152983l0.152477,0c0.045741,0 0.12196,-0.015313 0.24394,-0.030587c-0.030517,0.122367 -0.045751,0.290623 -0.061005,0.489477c-0.030488,0.214176 -0.060995,0.428353 -0.076229,0.642529l-0.060995,0.672997a3.89567,3.908563 0 0 0 -0.030488,0.565983c0,0.18357 0,0.351836 0.030488,0.520103a1.079213,1.082783 0 0 0 0.152477,0.489506c0.091482,0.244743 0.274447,0.45892 0.533681,0.611873a2.910984,2.920614 0 0 0 0.823312,0.382423a3.875864,3.888678 0 0 0 0.945272,0.214176c0.335412,0.030587 0.625113,0.04589 0.899531,0.04589c0.472626,0 0.930038,-0.015303 1.387431,-0.04589c0.426944,-0.030587 0.884297,-0.09178 1.356933,-0.152983l0.259194,-0.04589l0.274447,-0.09178c0.091492,-0.030587 0.152458,-0.09178 0.213482,-0.152983a0.31029,0.311312 0 0 0 0.091482,-0.22946a0.373844,0.375074 0 0 0 -0.091482,-0.244733a1.026133,1.029534 0 0 0 -0.228706,-0.214186a2.649371,2.658138 0 0 0 -0.289671,-0.152983a1.232474,1.23656 0 0 0 -0.304925,-0.04589a3.975301,3.988462 0 0 0 -0.732008,0.076566c-0.12197,0.030577 -0.213482,0.04589 -0.304935,0.061193q-0.160074,0.02293 -0.274447,0.04589c-0.24393,0.04589 -0.48788,0.076477 -0.762337,0.107093a7.114257,7.137792 0 0 1 -0.792825,0.04589a5.245244,5.262591 0 0 1 -0.701332,-0.04589c-0.228706,-0.015303 -0.442158,-0.061193 -0.625113,-0.152983c-0.198199,-0.061193 -0.350676,-0.18357 -0.472646,-0.336533c-0.12196,-0.13768 -0.167711,-0.336523 -0.167711,-0.581286a12.345785,12.386626 0 0 1 0.061005,-1.239059l0.12196,-1.346123c0.579372,-0.04589 1.219729,-0.09178 1.905808,-0.13768s1.311192,-0.107093 1.890574,-0.168257a0.815784,0.818472 0 0 0 0.426944,-0.168267c0.106736,-0.076477 0.167711,-0.198853 0.167711,-0.36714a0.553625,0.55546 0 0 0 -0.167711,-0.397726a0.597135,0.599109 0 0 0 -0.396407,-0.13767c-0.152477,0 -0.320208,0.015303 -0.48789,0.030577l-0.548865,0.061193l-0.579293,0.04587l-0.686089,0.061193l-0.747073,0.061302l-0.701342,0.061074c0.030488,-0.581296 0.045741,-1.131976 0.061005,-1.652059l0.045741,-1.606169q0.640417,-0.04589 1.143491,-0.09178c0.304925,-0.015303 0.655601,-0.030587 1.052008,-0.061193c0.426944,-0.030587 0.899531,-0.04589 1.402684,-0.04589a9.937924,9.970802 0 0 0 1.387431,-0.09178a0.495239,0.496875 0 0 0 0.335412,-0.18357c0.060975,-0.09178 0.106706,-0.22946 0.106706,-0.41302l-0.00001,-0.00001l-0.00001,-0.00002z" fill="#834ec2" p-id="6336" id="svg_18"/>
   </g>
   <g stroke="null" id="svg_r">
    <path stroke="null" d="m183.450798,23.272047l-20.175923,0l0,-20.242651l20.175923,0l0,20.242651z" fill="#FFFFFF" fill-opacity="0.75" p-id="6554" id="svg_19"/>
    <path stroke="null" d="m163.6003,3.355883l0,19.589678l19.525083,0l0,-19.589678l-19.525083,0m-0.65084,-0.652983l20.826754,0l0,20.895643l-20.826754,0l0,-20.895643z" fill="#834ec2" p-id="6555" id="svg_20"/>
    <path stroke="null" d="m177.594286,17.6781c0,-0.148203 -0.044254,-0.251924 -0.103404,-0.296405a0.064694,0.064912 0 0 1 -0.044254,-0.014817l-0.059101,-0.029645a0.209932,0.210626 0 0 1 -0.088507,-0.029635c-0.029555,0 -0.073858,0 -0.103414,-0.029645c-0.265878,-0.074106 -0.57607,-0.266761 -0.945322,-0.563147a4.678646,4.694128 0 0 1 -0.576199,-0.503848l-0.561282,-0.533492c-0.221565,-0.192665 -0.443111,-0.385319 -0.649928,-0.563137s-0.428373,-0.370512 -0.649898,-0.563166l-0.354494,-0.26687l-0.531757,-0.355566a12.621928,12.663672 0 0 0 1.59525,-0.533522a6.609289,6.631157 0 0 0 1.285068,-0.711339c0.354494,-0.266761 0.649928,-0.563137 0.871463,-0.889197c0.206659,-0.32607 0.310191,-0.71131 0.310191,-1.141001c0,-0.444578 -0.132929,-0.829888 -0.369262,-1.14111a2.843404,2.852796 0 0 0 -0.915776,-0.740994c-0.369262,-0.177847 -0.782857,-0.296405 -1.225968,-0.385309a8.350857,8.378478 0 0 0 -1.314683,-0.118568c-0.147717,0 -0.38405,0.014817 -0.723737,0.029645c-0.354494,0.029645 -0.738534,0.088805 -1.181655,0.16301q-0.044254,-0.266751 -0.221565,-0.400127c-0.118162,-0.088805 -0.236333,-0.133366 -0.369262,-0.133366c-0.236333,0 -0.428353,0.177847 -0.590956,0.518685a4.636039,4.651372 0 0 0 -0.472666,0.088805c-0.118162,0.044402 -0.221565,0.088805 -0.280646,0.148203s-0.103404,0.103741 -0.118162,0.148203a0.3212,0.322261 0 0 0 -0.029545,0.148203a0.421123,0.422511 0 0 0 0.177391,0.355675c0.103414,0.103741 0.251091,0.16301 0.457908,0.177847c-0.044263,0.32603 -0.073858,0.59292 -0.073858,0.800253l0,1.793181c0,0.444578 0,0.903994 0.029545,1.378227a0.354861,0.356032 0 0 1 -0.147707,0.029625a0.1606,0.161126 0 0 1 -0.073858,0.014807c-0.118162,0.044412 -0.221565,0.103751 -0.280636,0.192665a0.369123,0.370353 0 0 0 -0.118162,0.281598c0,0.148203 0.059101,0.251924 0.177262,0.340857s0.265878,0.148203 0.472666,0.16301q0.044254,1.333765 0.044254,2.489683c0,0.296405 0.059101,0.563137 0.19203,0.785446c0.132929,0.237107 0.369262,0.340857 0.694231,0.340857s0.502241,-0.133385 0.502241,-0.414954a0.819295,0.822013 0 0 0 -0.044254,-0.251934a1.143392,1.14717 0 0 1 -0.103404,-0.237107a1.378048,1.382621 0 0 1 -0.103433,-0.296326c-0.044254,-0.088805 -0.059101,-0.192655 -0.059101,-0.311213c0,-0.32602 -0.014758,-0.696522 -0.014758,-1.081812l-0.044254,-1.185572a2.63248,2.641178 0 0 0 0.38397,-0.059468c0.088517,-0.029645 0.206788,-0.044412 0.324949,-0.074106c0.162475,0.088805 0.354494,0.192665 0.590956,0.340857c0.221565,0.148203 0.472666,0.32603 0.738534,0.518685c0.251091,0.207462 0.516979,0.414954 0.782857,0.637312c0.265888,0.237107 0.516979,0.474233 0.76799,0.696532c0.324949,0.32602 0.620383,0.59292 0.871473,0.81508c0.236333,0.237116 0.472666,0.429781 0.679473,0.607598c0.221565,0.207472 0.413595,0.340857 0.590956,0.429771c0.162475,0.074106 0.280636,0.118568 0.339737,0.118568a0.467925,0.469472 0 0 0 0.339737,-0.133366a1.047119,1.05058 0 0 0 0.236333,-0.266761a0.612181,0.614194 0 0 0 0.088438,-0.296386l-0.00004,0.00002zm-1.84634,-7.143048c0,0.414964 -0.103404,0.770529 -0.310191,1.052207a2.497677,2.505938 0 0 1 -0.812293,0.711339c-0.324949,0.207462 -0.694231,0.355675 -1.078251,0.474233s-0.753312,0.222299 -1.107806,0.281568l-0.76799,0.133366c-0.265878,0.059289 -0.546514,0.103741 -0.841918,0.148203l0,-0.370472a1.433063,1.437804 0 0 1 -0.014758,-0.251934c0,-0.503867 0,-0.992908 0.014758,-1.467131c0,-0.474233 0.029555,-0.963263 0.073858,-1.467131a0.554101,0.555926 0 0 1 0.014758,-0.148203a1.059556,1.063067 0 0 1 0.014758,-0.192665c0.398798,-0.103751 0.782857,-0.177847 1.137352,-0.237116a8.664479,8.693142 0 0 1 1.093029,-0.074096c0.251091,0 0.531757,0.029645 0.82717,0.059289a3.303256,3.314185 0 0 1 0.856706,0.207462c0.251091,0.103751 0.472666,0.237116 0.649928,0.414964c0.162266,0.192625 0.250892,0.429741 0.250892,0.726117z" fill="#834ec2" p-id="6556" id="svg_21"/>
   </g>
  </g>
 </g>
</svg>
